<mxfile host="app.diagrams.net" modified="2022-11-01T12:01:04.112Z" agent="5.0 (Macintosh; Intel Mac OS X 10_15_7) AppleWebKit/537.36 (KHTML, like Gecko) Chrome/107.0.0.0 Safari/537.36" etag="PtMd7z2WTstSfgCLEG6_" version="20.5.1" type="github">
  <diagram name="Page-1" id="e7e014a7-5840-1c2e-5031-d8a46d1fe8dd">
    <mxGraphModel dx="1364" dy="712" grid="1" gridSize="10" guides="1" tooltips="1" connect="1" arrows="1" fold="1" page="1" pageScale="1" pageWidth="1169" pageHeight="826" background="none" math="0" shadow="0">
      <root>
        <mxCell id="0" />
        <mxCell id="1" parent="0" />
        <mxCell id="2" value="P2P-SDK" style="swimlane;whiteSpace=wrap;fontFamily=Architects Daughter;fontSource=https%3A%2F%2Ffonts.googleapis.com%2Fcss%3Ffamily%3DArchitects%2BDaughter;sketch=1;" parent="1" vertex="1">
          <mxGeometry x="164.5" y="128" width="280" height="570" as="geometry" />
        </mxCell>
        <mxCell id="5" value="" style="ellipse;shape=startState;fillColor=#000000;strokeColor=#ff0000;sketch=1;" parent="2" vertex="1">
          <mxGeometry x="100" y="40" width="30" height="30" as="geometry" />
        </mxCell>
        <mxCell id="6" value="" style="edgeStyle=elbowEdgeStyle;elbow=horizontal;verticalAlign=bottom;endArrow=open;endSize=8;strokeColor=#FF0000;endFill=1;rounded=0;sketch=1;entryX=0.5;entryY=0;entryDx=0;entryDy=0;" parent="2" source="5" target="NQoVjLt3wJo_B9yNXYQH-41" edge="1">
          <mxGeometry x="100" y="40" as="geometry">
            <mxPoint x="115.5" y="110" as="targetPoint" />
          </mxGeometry>
        </mxCell>
        <mxCell id="9" value="" style="endArrow=open;strokeColor=#FF0000;endFill=1;rounded=0;sketch=1;exitX=0.5;exitY=1;exitDx=0;exitDy=0;entryX=0.5;entryY=0;entryDx=0;entryDy=0;" parent="2" source="NQoVjLt3wJo_B9yNXYQH-41" target="NQoVjLt3wJo_B9yNXYQH-42" edge="1">
          <mxGeometry relative="1" as="geometry">
            <mxPoint x="115" y="160" as="sourcePoint" />
            <mxPoint x="115.0753012048192" y="220" as="targetPoint" />
          </mxGeometry>
        </mxCell>
        <mxCell id="NQoVjLt3wJo_B9yNXYQH-41" value="&lt;font face=&quot;Aa花语·紫罗兰永恒&quot;&gt;&lt;font style=&quot;font-size: 14px;&quot;&gt;获取PoP_CdnTi&lt;br&gt;下载链接&lt;/font&gt;&lt;br&gt;&lt;/font&gt;" style="rounded=0;whiteSpace=wrap;html=1;sketch=1;hachureGap=4;jiggle=2;fontFamily=Architects Daughter;fontSource=https%3A%2F%2Ffonts.googleapis.com%2Fcss%3Ffamily%3DArchitects%2BDaughter;fontSize=20;" vertex="1" parent="2">
          <mxGeometry x="60.5" y="112" width="109.5" height="50" as="geometry" />
        </mxCell>
        <mxCell id="NQoVjLt3wJo_B9yNXYQH-42" value="&lt;font face=&quot;Aa花语·紫罗兰永恒&quot;&gt;&lt;font style=&quot;font-size: 14px;&quot;&gt;向PoP_CdnTi发起&lt;br&gt;下载请求&lt;/font&gt;&lt;br&gt;&lt;/font&gt;" style="rounded=0;whiteSpace=wrap;html=1;sketch=1;hachureGap=4;jiggle=2;fontFamily=Architects Daughter;fontSource=https%3A%2F%2Ffonts.googleapis.com%2Fcss%3Ffamily%3DArchitects%2BDaughter;fontSize=20;" vertex="1" parent="2">
          <mxGeometry x="60.5" y="212" width="109.5" height="50" as="geometry" />
        </mxCell>
        <mxCell id="NQoVjLt3wJo_B9yNXYQH-81" style="edgeStyle=orthogonalEdgeStyle;rounded=0;sketch=1;hachureGap=4;jiggle=2;orthogonalLoop=1;jettySize=auto;html=1;exitX=0.5;exitY=1;exitDx=0;exitDy=0;strokeColor=#FF3333;fontFamily=Architects Daughter;fontSource=https%3A%2F%2Ffonts.googleapis.com%2Fcss%3Ffamily%3DArchitects%2BDaughter;fontSize=14;fontColor=#000000;" edge="1" parent="2" source="NQoVjLt3wJo_B9yNXYQH-78" target="NQoVjLt3wJo_B9yNXYQH-80">
          <mxGeometry relative="1" as="geometry" />
        </mxCell>
        <mxCell id="NQoVjLt3wJo_B9yNXYQH-78" value="&lt;font face=&quot;Aa花语·紫罗兰永恒&quot;&gt;处理回应，数据落盘&lt;br&gt;&lt;/font&gt;" style="rounded=0;whiteSpace=wrap;html=1;sketch=1;hachureGap=4;jiggle=2;fontFamily=Architects Daughter;fontSource=https%3A%2F%2Ffonts.googleapis.com%2Fcss%3Ffamily%3DArchitects%2BDaughter;fontSize=14;" vertex="1" parent="2">
          <mxGeometry x="40.960000000000036" y="422" width="148.57" height="36" as="geometry" />
        </mxCell>
        <mxCell id="NQoVjLt3wJo_B9yNXYQH-80" value="" style="ellipse;html=1;shape=endState;fillColor=#000000;strokeColor=#ff0000;sketch=1;hachureGap=4;jiggle=2;fontFamily=Architects Daughter;fontSource=https%3A%2F%2Ffonts.googleapis.com%2Fcss%3Ffamily%3DArchitects%2BDaughter;fontSize=14;fontColor=#000000;" vertex="1" parent="2">
          <mxGeometry x="100.5" y="512" width="30" height="30" as="geometry" />
        </mxCell>
        <mxCell id="NQoVjLt3wJo_B9yNXYQH-43" value="" style="swimlane;startSize=22;horizontal=1;containerType=tree;sketch=1;hachureGap=4;jiggle=2;fontFamily=Architects Daughter;fontSource=https%3A%2F%2Ffonts.googleapis.com%2Fcss%3Ffamily%3DArchitects%2BDaughter;fontSize=14;" vertex="1" parent="1">
          <mxGeometry x="444.5" y="127" width="410" height="572" as="geometry">
            <mxRectangle x="445" y="128" width="170" height="30" as="alternateBounds" />
          </mxGeometry>
        </mxCell>
        <mxCell id="NQoVjLt3wJo_B9yNXYQH-47" value="&lt;font face=&quot;Aa花语·紫罗兰永恒&quot;&gt;PoP_CDNTi 网络接口&lt;/font&gt;" style="text;html=1;strokeColor=none;fillColor=none;align=center;verticalAlign=middle;whiteSpace=wrap;rounded=0;sketch=1;hachureGap=4;jiggle=2;fontFamily=Architects Daughter;fontSource=https%3A%2F%2Ffonts.googleapis.com%2Fcss%3Ffamily%3DArchitects%2BDaughter;fontSize=14;" vertex="1" parent="NQoVjLt3wJo_B9yNXYQH-43">
          <mxGeometry x="105" width="150" height="20" as="geometry" />
        </mxCell>
        <mxCell id="NQoVjLt3wJo_B9yNXYQH-55" style="edgeStyle=orthogonalEdgeStyle;rounded=0;sketch=1;hachureGap=4;jiggle=2;orthogonalLoop=1;jettySize=auto;html=1;exitX=0.5;exitY=1;exitDx=0;exitDy=0;fontFamily=Architects Daughter;fontSource=https%3A%2F%2Ffonts.googleapis.com%2Fcss%3Ffamily%3DArchitects%2BDaughter;fontSize=14;fontColor=#FF3333;strokeColor=#FF3333;" edge="1" parent="NQoVjLt3wJo_B9yNXYQH-43" source="NQoVjLt3wJo_B9yNXYQH-48" target="NQoVjLt3wJo_B9yNXYQH-54">
          <mxGeometry relative="1" as="geometry" />
        </mxCell>
        <mxCell id="NQoVjLt3wJo_B9yNXYQH-48" value="&lt;font face=&quot;Aa花语·紫罗兰永恒&quot;&gt;解析下载请求，&lt;br&gt;获得待下载文件信息&lt;/font&gt;" style="rounded=0;whiteSpace=wrap;html=1;sketch=1;hachureGap=4;jiggle=2;fontFamily=Architects Daughter;fontSource=https%3A%2F%2Ffonts.googleapis.com%2Fcss%3Ffamily%3DArchitects%2BDaughter;fontSize=14;" vertex="1" parent="NQoVjLt3wJo_B9yNXYQH-43">
          <mxGeometry x="90" y="214.5" width="155" height="47" as="geometry" />
        </mxCell>
        <mxCell id="NQoVjLt3wJo_B9yNXYQH-54" value="&lt;font face=&quot;Aa花语·紫罗兰永恒&quot;&gt;请求下载文件数据&lt;br&gt;&lt;/font&gt;" style="rounded=0;whiteSpace=wrap;html=1;sketch=1;hachureGap=4;jiggle=2;fontFamily=Architects Daughter;fontSource=https%3A%2F%2Ffonts.googleapis.com%2Fcss%3Ffamily%3DArchitects%2BDaughter;fontSize=14;" vertex="1" parent="NQoVjLt3wJo_B9yNXYQH-43">
          <mxGeometry x="90" y="313" width="155" height="47" as="geometry" />
        </mxCell>
        <mxCell id="NQoVjLt3wJo_B9yNXYQH-73" value="&lt;font face=&quot;Aa花语·紫罗兰永恒&quot;&gt;返回下载文件数据&lt;br&gt;&lt;/font&gt;" style="rounded=0;whiteSpace=wrap;html=1;sketch=1;hachureGap=4;jiggle=2;fontFamily=Architects Daughter;fontSource=https%3A%2F%2Ffonts.googleapis.com%2Fcss%3Ffamily%3DArchitects%2BDaughter;fontSize=14;" vertex="1" parent="NQoVjLt3wJo_B9yNXYQH-43">
          <mxGeometry x="96.43000000000002" y="424" width="148.57" height="36" as="geometry" />
        </mxCell>
        <mxCell id="NQoVjLt3wJo_B9yNXYQH-50" value="" style="endArrow=open;strokeColor=#FF0000;endFill=1;rounded=0;sketch=1;exitX=1;exitY=0.5;exitDx=0;exitDy=0;" edge="1" parent="1" source="NQoVjLt3wJo_B9yNXYQH-42" target="NQoVjLt3wJo_B9yNXYQH-48">
          <mxGeometry relative="1" as="geometry">
            <mxPoint x="289.75" y="300" as="sourcePoint" />
            <mxPoint x="289.75" y="350" as="targetPoint" />
          </mxGeometry>
        </mxCell>
        <mxCell id="NQoVjLt3wJo_B9yNXYQH-56" value="" style="swimlane;startSize=22;horizontal=1;containerType=tree;sketch=1;hachureGap=4;jiggle=2;fontFamily=Architects Daughter;fontSource=https%3A%2F%2Ffonts.googleapis.com%2Fcss%3Ffamily%3DArchitects%2BDaughter;fontSize=14;" vertex="1" parent="1">
          <mxGeometry x="854.5" y="127" width="465.5" height="572" as="geometry">
            <mxRectangle x="445" y="128" width="170" height="30" as="alternateBounds" />
          </mxGeometry>
        </mxCell>
        <mxCell id="NQoVjLt3wJo_B9yNXYQH-57" value="&lt;font face=&quot;Aa花语·紫罗兰永恒&quot;&gt;PoP_CDNTi 存储模块&lt;/font&gt;" style="text;html=1;strokeColor=none;fillColor=none;align=center;verticalAlign=middle;whiteSpace=wrap;rounded=0;sketch=1;hachureGap=4;jiggle=2;fontFamily=Architects Daughter;fontSource=https%3A%2F%2Ffonts.googleapis.com%2Fcss%3Ffamily%3DArchitects%2BDaughter;fontSize=14;" vertex="1" parent="NQoVjLt3wJo_B9yNXYQH-56">
          <mxGeometry x="105" width="150" height="20" as="geometry" />
        </mxCell>
        <mxCell id="NQoVjLt3wJo_B9yNXYQH-70" value="&lt;font face=&quot;Aa花语·紫罗兰永恒&quot;&gt;存在&lt;/font&gt;" style="edgeStyle=orthogonalEdgeStyle;rounded=0;sketch=1;hachureGap=4;jiggle=2;orthogonalLoop=1;jettySize=auto;html=1;exitX=0.5;exitY=1;exitDx=0;exitDy=0;strokeColor=#FF3333;fontFamily=Architects Daughter;fontSource=https%3A%2F%2Ffonts.googleapis.com%2Fcss%3Ffamily%3DArchitects%2BDaughter;fontSize=14;fontColor=#000000;" edge="1" parent="NQoVjLt3wJo_B9yNXYQH-56" source="NQoVjLt3wJo_B9yNXYQH-65" target="NQoVjLt3wJo_B9yNXYQH-69">
          <mxGeometry relative="1" as="geometry" />
        </mxCell>
        <mxCell id="NQoVjLt3wJo_B9yNXYQH-83" value="&lt;span style=&quot;font-family: Aa花语·紫罗兰永恒;&quot;&gt;不存在&lt;/span&gt;" style="edgeStyle=orthogonalEdgeStyle;rounded=0;sketch=1;hachureGap=4;jiggle=2;orthogonalLoop=1;jettySize=auto;html=1;exitX=1;exitY=0.5;exitDx=0;exitDy=0;strokeColor=#FF3333;fontFamily=Architects Daughter;fontSource=https%3A%2F%2Ffonts.googleapis.com%2Fcss%3Ffamily%3DArchitects%2BDaughter;fontSize=14;fontColor=#000000;" edge="1" parent="NQoVjLt3wJo_B9yNXYQH-56" source="NQoVjLt3wJo_B9yNXYQH-65" target="NQoVjLt3wJo_B9yNXYQH-82">
          <mxGeometry relative="1" as="geometry" />
        </mxCell>
        <mxCell id="NQoVjLt3wJo_B9yNXYQH-65" value="&lt;font face=&quot;Aa花语·紫罗兰永恒&quot; color=&quot;#000000&quot;&gt;检查&lt;br&gt;下载数据&lt;br&gt;是否存在&lt;/font&gt;" style="rhombus;whiteSpace=wrap;html=1;sketch=1;hachureGap=4;jiggle=2;fontFamily=Architects Daughter;fontSource=https%3A%2F%2Ffonts.googleapis.com%2Fcss%3Ffamily%3DArchitects%2BDaughter;fontSize=14;fontColor=#FF3333;" vertex="1" parent="NQoVjLt3wJo_B9yNXYQH-56">
          <mxGeometry x="52.28" y="295" width="166.87" height="83" as="geometry" />
        </mxCell>
        <mxCell id="NQoVjLt3wJo_B9yNXYQH-69" value="&lt;font face=&quot;Aa花语·紫罗兰永恒&quot;&gt;读取下载内容&lt;br&gt;&lt;/font&gt;" style="rounded=0;whiteSpace=wrap;html=1;sketch=1;hachureGap=4;jiggle=2;fontFamily=Architects Daughter;fontSource=https%3A%2F%2Ffonts.googleapis.com%2Fcss%3Ffamily%3DArchitects%2BDaughter;fontSize=14;" vertex="1" parent="NQoVjLt3wJo_B9yNXYQH-56">
          <mxGeometry x="61.43" y="424" width="148.57" height="36" as="geometry" />
        </mxCell>
        <mxCell id="NQoVjLt3wJo_B9yNXYQH-82" value="&lt;font face=&quot;Aa花语·紫罗兰永恒&quot;&gt;发起回源请求&lt;br&gt;&lt;/font&gt;" style="rounded=0;whiteSpace=wrap;html=1;sketch=1;hachureGap=4;jiggle=2;fontFamily=Architects Daughter;fontSource=https%3A%2F%2Ffonts.googleapis.com%2Fcss%3Ffamily%3DArchitects%2BDaughter;fontSize=14;" vertex="1" parent="NQoVjLt3wJo_B9yNXYQH-56">
          <mxGeometry x="285.5" y="318.5" width="148.57" height="36" as="geometry" />
        </mxCell>
        <mxCell id="NQoVjLt3wJo_B9yNXYQH-68" style="edgeStyle=orthogonalEdgeStyle;rounded=0;sketch=1;hachureGap=4;jiggle=2;orthogonalLoop=1;jettySize=auto;html=1;exitX=1;exitY=0.5;exitDx=0;exitDy=0;strokeColor=#FF3333;fontFamily=Architects Daughter;fontSource=https%3A%2F%2Ffonts.googleapis.com%2Fcss%3Ffamily%3DArchitects%2BDaughter;fontSize=14;fontColor=#000000;" edge="1" parent="1" source="NQoVjLt3wJo_B9yNXYQH-54" target="NQoVjLt3wJo_B9yNXYQH-65">
          <mxGeometry relative="1" as="geometry" />
        </mxCell>
        <mxCell id="NQoVjLt3wJo_B9yNXYQH-77" style="edgeStyle=orthogonalEdgeStyle;rounded=0;sketch=1;hachureGap=4;jiggle=2;orthogonalLoop=1;jettySize=auto;html=1;exitX=0;exitY=0.5;exitDx=0;exitDy=0;entryX=1;entryY=0.5;entryDx=0;entryDy=0;strokeColor=#FF3333;fontFamily=Architects Daughter;fontSource=https%3A%2F%2Ffonts.googleapis.com%2Fcss%3Ffamily%3DArchitects%2BDaughter;fontSize=14;fontColor=#000000;" edge="1" parent="1" source="NQoVjLt3wJo_B9yNXYQH-69" target="NQoVjLt3wJo_B9yNXYQH-73">
          <mxGeometry relative="1" as="geometry" />
        </mxCell>
        <mxCell id="NQoVjLt3wJo_B9yNXYQH-79" style="edgeStyle=orthogonalEdgeStyle;rounded=0;sketch=1;hachureGap=4;jiggle=2;orthogonalLoop=1;jettySize=auto;html=1;exitX=0;exitY=0.5;exitDx=0;exitDy=0;entryX=1;entryY=0.5;entryDx=0;entryDy=0;strokeColor=#FF3333;fontFamily=Architects Daughter;fontSource=https%3A%2F%2Ffonts.googleapis.com%2Fcss%3Ffamily%3DArchitects%2BDaughter;fontSize=14;fontColor=#000000;" edge="1" parent="1" source="NQoVjLt3wJo_B9yNXYQH-73" target="NQoVjLt3wJo_B9yNXYQH-78">
          <mxGeometry relative="1" as="geometry" />
        </mxCell>
        <mxCell id="NQoVjLt3wJo_B9yNXYQH-84" value="" style="swimlane;startSize=22;horizontal=1;containerType=tree;sketch=1;hachureGap=4;jiggle=2;fontFamily=Architects Daughter;fontSource=https%3A%2F%2Ffonts.googleapis.com%2Fcss%3Ffamily%3DArchitects%2BDaughter;fontSize=14;" vertex="1" parent="1">
          <mxGeometry x="1320" y="127" width="465.5" height="572" as="geometry">
            <mxRectangle x="445" y="128" width="170" height="30" as="alternateBounds" />
          </mxGeometry>
        </mxCell>
        <mxCell id="NQoVjLt3wJo_B9yNXYQH-85" value="&lt;font face=&quot;Aa花语·紫罗兰永恒&quot;&gt;PoP_CDNTi 回源模块&lt;/font&gt;" style="text;html=1;strokeColor=none;fillColor=none;align=center;verticalAlign=middle;whiteSpace=wrap;rounded=0;sketch=1;hachureGap=4;jiggle=2;fontFamily=Architects Daughter;fontSource=https%3A%2F%2Ffonts.googleapis.com%2Fcss%3Ffamily%3DArchitects%2BDaughter;fontSize=14;" vertex="1" parent="NQoVjLt3wJo_B9yNXYQH-84">
          <mxGeometry x="105" width="150" height="20" as="geometry" />
        </mxCell>
        <mxCell id="NQoVjLt3wJo_B9yNXYQH-95" value="&lt;font face=&quot;Aa花语·紫罗兰永恒&quot;&gt;存在&lt;/font&gt;" style="edgeStyle=orthogonalEdgeStyle;rounded=0;sketch=1;hachureGap=4;jiggle=2;orthogonalLoop=1;jettySize=auto;html=1;exitX=0.5;exitY=1;exitDx=0;exitDy=0;entryX=0.5;entryY=0;entryDx=0;entryDy=0;strokeColor=#FF3333;fontFamily=Architects Daughter;fontSource=https%3A%2F%2Ffonts.googleapis.com%2Fcss%3Ffamily%3DArchitects%2BDaughter;fontSize=14;fontColor=#000000;" edge="1" parent="NQoVjLt3wJo_B9yNXYQH-84" source="NQoVjLt3wJo_B9yNXYQH-92" target="NQoVjLt3wJo_B9yNXYQH-94">
          <mxGeometry relative="1" as="geometry" />
        </mxCell>
        <mxCell id="NQoVjLt3wJo_B9yNXYQH-99" value="&lt;font face=&quot;Aa花语·紫罗兰永恒&quot;&gt;不存在&lt;/font&gt;" style="edgeStyle=orthogonalEdgeStyle;rounded=0;sketch=1;hachureGap=4;jiggle=2;orthogonalLoop=1;jettySize=auto;html=1;exitX=1;exitY=0.5;exitDx=0;exitDy=0;strokeColor=#FF3333;fontFamily=Architects Daughter;fontSource=https%3A%2F%2Ffonts.googleapis.com%2Fcss%3Ffamily%3DArchitects%2BDaughter;fontSize=14;fontColor=#000000;" edge="1" parent="NQoVjLt3wJo_B9yNXYQH-84" source="NQoVjLt3wJo_B9yNXYQH-92" target="NQoVjLt3wJo_B9yNXYQH-98">
          <mxGeometry relative="1" as="geometry" />
        </mxCell>
        <mxCell id="NQoVjLt3wJo_B9yNXYQH-92" value="&lt;font face=&quot;Aa花语·紫罗兰永恒&quot; color=&quot;#000000&quot;&gt;是否存在&lt;br&gt;相同回源请求&lt;/font&gt;" style="rhombus;whiteSpace=wrap;html=1;sketch=1;hachureGap=4;jiggle=2;fontFamily=Architects Daughter;fontSource=https%3A%2F%2Ffonts.googleapis.com%2Fcss%3Ffamily%3DArchitects%2BDaughter;fontSize=14;fontColor=#FF3333;" vertex="1" parent="NQoVjLt3wJo_B9yNXYQH-84">
          <mxGeometry x="70" y="299" width="130" height="75" as="geometry" />
        </mxCell>
        <mxCell id="NQoVjLt3wJo_B9yNXYQH-94" value="&lt;font face=&quot;Aa花语·紫罗兰永恒&quot;&gt;等待相同请求返回&lt;br&gt;&lt;/font&gt;" style="rounded=0;whiteSpace=wrap;html=1;sketch=1;hachureGap=4;jiggle=2;fontFamily=Architects Daughter;fontSource=https%3A%2F%2Ffonts.googleapis.com%2Fcss%3Ffamily%3DArchitects%2BDaughter;fontSize=14;" vertex="1" parent="NQoVjLt3wJo_B9yNXYQH-84">
          <mxGeometry x="60.72000000000003" y="423" width="148.57" height="36" as="geometry" />
        </mxCell>
        <mxCell id="NQoVjLt3wJo_B9yNXYQH-101" style="edgeStyle=orthogonalEdgeStyle;rounded=0;sketch=1;hachureGap=4;jiggle=2;orthogonalLoop=1;jettySize=auto;html=1;exitX=0.5;exitY=1;exitDx=0;exitDy=0;strokeColor=#FF3333;fontFamily=Architects Daughter;fontSource=https%3A%2F%2Ffonts.googleapis.com%2Fcss%3Ffamily%3DArchitects%2BDaughter;fontSize=14;fontColor=#000000;" edge="1" parent="NQoVjLt3wJo_B9yNXYQH-84" source="NQoVjLt3wJo_B9yNXYQH-98" target="NQoVjLt3wJo_B9yNXYQH-100">
          <mxGeometry relative="1" as="geometry" />
        </mxCell>
        <mxCell id="NQoVjLt3wJo_B9yNXYQH-98" value="&lt;font face=&quot;Aa花语·紫罗兰永恒&quot;&gt;发起回源请求&lt;br&gt;&lt;/font&gt;" style="rounded=0;whiteSpace=wrap;html=1;sketch=1;hachureGap=4;jiggle=2;fontFamily=Architects Daughter;fontSource=https%3A%2F%2Ffonts.googleapis.com%2Fcss%3Ffamily%3DArchitects%2BDaughter;fontSize=14;" vertex="1" parent="NQoVjLt3wJo_B9yNXYQH-84">
          <mxGeometry x="290" y="318.5" width="100" height="31.5" as="geometry" />
        </mxCell>
        <mxCell id="NQoVjLt3wJo_B9yNXYQH-100" value="&lt;font face=&quot;Aa花语·紫罗兰永恒&quot;&gt;处理回源数据&lt;br&gt;&lt;/font&gt;" style="rounded=0;whiteSpace=wrap;html=1;sketch=1;hachureGap=4;jiggle=2;fontFamily=Architects Daughter;fontSource=https%3A%2F%2Ffonts.googleapis.com%2Fcss%3Ffamily%3DArchitects%2BDaughter;fontSize=14;" vertex="1" parent="NQoVjLt3wJo_B9yNXYQH-84">
          <mxGeometry x="267.86" y="473" width="144.28" height="27" as="geometry" />
        </mxCell>
        <mxCell id="NQoVjLt3wJo_B9yNXYQH-93" style="edgeStyle=orthogonalEdgeStyle;rounded=0;sketch=1;hachureGap=4;jiggle=2;orthogonalLoop=1;jettySize=auto;html=1;exitX=1;exitY=0.5;exitDx=0;exitDy=0;entryX=0;entryY=0.5;entryDx=0;entryDy=0;strokeColor=#FF3333;fontFamily=Architects Daughter;fontSource=https%3A%2F%2Ffonts.googleapis.com%2Fcss%3Ffamily%3DArchitects%2BDaughter;fontSize=14;fontColor=#000000;" edge="1" parent="1" source="NQoVjLt3wJo_B9yNXYQH-82" target="NQoVjLt3wJo_B9yNXYQH-92">
          <mxGeometry relative="1" as="geometry" />
        </mxCell>
      </root>
    </mxGraphModel>
  </diagram>
</mxfile>
